<svg xmlns="http://www.w3.org/2000/svg" xmlns:xlink="http://www.w3.org/1999/xlink" width="256" height="256" viewBox="0 0 256 256">
  <defs>
    <clipPath id="clip-path">
      <rect id="Rectangle_17601" data-name="Rectangle 17601" width="256" height="256" rx="10" transform="translate(7922 679)" fill="#fff"/>
    </clipPath>
  </defs>
  <g id="file" transform="translate(-7922 -679)">
    <g id="Mask_Group_14" data-name="Mask Group 14" clip-path="url(#clip-path)">
      <g id="file_1214430" transform="translate(7953.193 679)">
        <path id="Path_15508" data-name="Path 15508" d="M134.538,1.664A5.413,5.413,0,0,0,130.678,0H27.015A27.083,27.083,0,0,0,0,26.954V229.046A27.083,27.083,0,0,0,27.015,256H166.6a27.083,27.083,0,0,0,27.015-26.954V64.609a5.478,5.478,0,0,0-1.582-3.765Zm1.529,17.04L175.395,59.16h-33.96a5.315,5.315,0,0,1-5.368-5.307ZM166.6,245.244H27.015a16.312,16.312,0,0,1-16.258-16.2V26.954a16.312,16.312,0,0,1,16.258-16.2h98.3v43.1a16.081,16.081,0,0,0,16.124,16.063h41.422v159.13a16.312,16.312,0,0,1-16.258,16.2Zm0,0" fill="#fff"/>
        <path id="Path_15509" data-name="Path 15509" d="M34.048,118.319H95.027a5.378,5.378,0,0,0,0-10.756H34.048a5.378,5.378,0,1,0,0,10.756Zm0,0" fill="#fff"/>
        <path id="Path_15510" data-name="Path 15510" d="M159.565,130.689H34.048a5.378,5.378,0,0,0,0,10.756H159.565a5.378,5.378,0,0,0,0-10.756Zm0,0" fill="#fff"/>
        <path id="Path_15511" data-name="Path 15511" d="M159.565,153.815H34.048a5.378,5.378,0,1,0,0,10.756H159.565a5.378,5.378,0,1,0,0-10.756Zm0,0" fill="#fff"/>
        <path id="Path_15512" data-name="Path 15512" d="M159.565,176.941H34.048a5.378,5.378,0,1,0,0,10.756H159.565a5.378,5.378,0,1,0,0-10.756Zm0,0" fill="#fff"/>
      </g>
    </g>
  </g>
</svg>
