<svg width="30" height="30" viewBox="0 0 30 30" fill="none" xmlns="http://www.w3.org/2000/svg">
<g clip-path="url(#clip0_582_836)">
<path fill-rule="evenodd" clip-rule="evenodd" d="M28.1011 29.8402C28.0511 29.8902 27.9912 29.9301 27.9312 29.9701C26.9519 29.9801 25.7027 29.9801 24.4136 29.9901C24.0638 29.7902 23.734 29.5104 23.4542 29.1806C23.3942 29.1107 23.3443 29.0407 23.2943 28.9708C22.205 27.5217 22.285 25.563 23.5341 24.4937C23.6641 24.3838 23.804 24.2839 23.9539 24.2039C25.253 23.4544 27.0418 23.8242 28.171 25.1533C29.4302 26.6323 29.4002 28.7309 28.1011 29.8402Z" fill="#2E9495"/>
<path d="M8.39456 25.1231C9.86265 25.1231 11.0528 23.933 11.0528 22.4649C11.0528 20.9968 9.86265 19.8066 8.39456 19.8066C6.92646 19.8066 5.73633 20.9968 5.73633 22.4649C5.73633 23.933 6.92646 25.1231 8.39456 25.1231Z" fill="#2E9495"/>
<path fill-rule="evenodd" clip-rule="evenodd" d="M23.9342 22.0354C21.8556 22.0354 20.1567 20.3466 20.1567 18.258C20.1567 16.1693 21.8456 14.4805 23.9342 14.4805C26.0228 14.4805 27.7117 16.1693 27.7117 18.258C27.7117 20.3466 26.0228 22.0354 23.9342 22.0354ZM23.9342 15.5198C22.4252 15.5198 21.1861 16.749 21.1861 18.2679C21.1861 19.7869 22.4152 21.0161 23.9342 21.0161C25.4532 21.0161 26.6824 19.7869 26.6824 18.2679C26.6824 16.749 25.4532 15.5198 23.9342 15.5198Z" fill="#2E9495"/>
<path fill-rule="evenodd" clip-rule="evenodd" d="M29.8799 27.3518C28.9805 24.8434 26.5921 23.1646 23.9339 23.1646C21.2757 23.1646 18.8873 24.8434 17.9779 27.3518C17.758 27.9514 17.838 28.6209 18.2077 29.1506C18.5375 29.6302 19.0671 29.94 19.6467 29.99H24.4136C25.7027 29.98 26.9519 29.98 27.9312 29.97H28.0711C28.6907 29.97 29.2903 29.6602 29.6501 29.1406C30.0198 28.6209 30.0998 27.9514 29.8799 27.3518ZM23.2943 28.9707H19.8066C19.5068 28.9707 19.217 28.8208 19.0471 28.5709C18.8773 28.3311 18.8273 28.0413 18.9172 27.7515L18.9772 27.6216L19.0771 27.3717C19.9166 25.483 21.8553 24.2238 23.9339 24.2039H23.9539C26.1624 24.2238 28.1511 25.6329 28.8906 27.7115C29.0105 28.0013 28.9705 28.3111 28.7907 28.551C28.6308 28.8008 28.341 28.9507 28.0412 28.9507C26.792 28.9607 25.0032 28.9707 23.2943 28.9707Z" fill="#2E9495"/>
<path fill-rule="evenodd" clip-rule="evenodd" d="M5.04664 29.2804H4.86676C2.18854 29.2804 0 27.0919 0 24.4136V7.03523C0 4.35701 2.17855 2.17847 4.85676 2.17847H22.2352C24.9134 2.17847 27.1019 4.35701 27.1019 7.03523V10.6628C27.1019 10.9526 26.8721 11.1825 26.5823 11.1825C26.2925 11.1825 26.0626 10.9526 26.0626 10.6628V7.03523C26.0626 4.92663 24.3438 3.20778 22.2352 3.20778H4.85676C2.74817 3.20778 1.02931 4.92663 1.02931 7.03523V24.4136C1.02931 26.5222 2.74817 28.2411 4.85676 28.2411H13.541C13.8308 28.2411 14.0606 28.4709 14.0606 28.7607C14.0606 29.0506 13.8308 29.2804 13.541 29.2804H5.04664Z" fill="#2E9495"/>
<path fill-rule="evenodd" clip-rule="evenodd" d="M7.39514 5.37642C7.10534 5.37642 6.87549 5.14657 6.87549 4.85676V0.519654C6.87549 0.229847 7.10534 0 7.39514 0C7.68495 0 7.9148 0.229847 7.9148 0.519654V4.86676C7.9148 5.15656 7.68495 5.38641 7.39514 5.38641V5.37642Z" fill="#2E9495"/>
<path fill-rule="evenodd" clip-rule="evenodd" d="M19.7067 5.37642C19.4169 5.37642 19.187 5.14657 19.187 4.85676V0.519654C19.187 0.229847 19.4169 0 19.7067 0C19.9965 0 20.2263 0.229847 20.2263 0.519654V4.86676C20.2263 5.15656 19.9965 5.38641 19.7067 5.38641V5.37642Z" fill="#2E9495"/>
<path fill-rule="evenodd" clip-rule="evenodd" d="M7.87495 23.634C7.77502 23.6141 7.68508 23.5641 7.61513 23.4941L7.10547 22.9845C6.9056 22.7846 6.9056 22.4648 7.10547 22.255C7.21539 22.145 7.32532 22.0951 7.46523 22.0951C7.60513 22.0951 7.72505 22.145 7.82499 22.245L7.9549 22.3849L8.93425 21.4155C9.03418 21.3156 9.1541 21.2656 9.304 21.2656C9.44391 21.2656 9.57382 21.3156 9.68375 21.4155C9.77369 21.5055 9.82365 21.6354 9.82365 21.7753C9.82365 21.9152 9.76369 22.0351 9.67375 22.145L8.34464 23.4742C8.2547 23.5741 8.12479 23.6241 7.98488 23.6241H7.87495V23.634Z" fill="#2E9495"/>
<path fill-rule="evenodd" clip-rule="evenodd" d="M8.38461 25.9726C6.44591 25.9726 4.87695 24.3936 4.87695 22.4549C4.87695 20.5162 6.4559 18.9473 8.38461 18.9473C10.3133 18.9473 11.9023 20.5262 11.9023 22.4649C11.9023 24.4036 10.3233 25.9826 8.38461 25.9826V25.9726ZM8.38461 19.9666C7.01553 19.9666 5.89627 21.0858 5.89627 22.4549C5.89627 23.824 7.01553 24.9433 8.38461 24.9433C9.7537 24.9433 10.873 23.824 10.873 22.4549C10.873 21.0858 9.7537 19.9666 8.38461 19.9666Z" fill="#2E9495"/>
<path fill-rule="evenodd" clip-rule="evenodd" d="M5.60608 11.6423C5.31627 11.6423 5.08643 11.4125 5.08643 11.1227C5.08643 10.8329 5.31627 10.603 5.60608 10.603H10.0931C10.3829 10.603 10.6127 10.8329 10.6127 11.1227C10.6127 11.4125 10.3829 11.6423 10.0931 11.6423H5.60608Z" fill="#2E9495"/>
<path fill-rule="evenodd" clip-rule="evenodd" d="M5.60608 16.2791C5.31627 16.2791 5.08643 16.0492 5.08643 15.7594C5.08643 15.4696 5.31627 15.2397 5.60608 15.2397H12.8413C13.1311 15.2397 13.3609 15.4696 13.3609 15.7594C13.3609 16.0492 13.1311 16.2791 12.8413 16.2791H5.60608Z" fill="#2E9495"/>
<path fill-rule="evenodd" clip-rule="evenodd" d="M28.1011 29.8402C28.0511 29.8902 27.9912 29.9301 27.9312 29.9701C26.9519 29.9801 25.7027 29.9801 24.4136 29.9901C24.0638 29.7902 23.734 29.5104 23.4542 29.1806C23.3942 29.1107 23.3443 29.0407 23.2943 28.9708C22.205 27.5217 22.285 25.563 23.5341 24.4937C23.6641 24.3838 23.804 24.2839 23.9539 24.2039C25.253 23.4544 27.0418 23.8242 28.171 25.1533C29.4302 26.6323 29.4002 28.7309 28.1011 29.8402Z" fill="#2E9495"/>
<path d="M8.39456 25.1231C9.86265 25.1231 11.0528 23.933 11.0528 22.4649C11.0528 20.9968 9.86265 19.8066 8.39456 19.8066C6.92646 19.8066 5.73633 20.9968 5.73633 22.4649C5.73633 23.933 6.92646 25.1231 8.39456 25.1231Z" fill="#2E9495"/>
<path fill-rule="evenodd" clip-rule="evenodd" d="M23.9342 22.0354C21.8556 22.0354 20.1567 20.3466 20.1567 18.258C20.1567 16.1693 21.8456 14.4805 23.9342 14.4805C26.0228 14.4805 27.7117 16.1693 27.7117 18.258C27.7117 20.3466 26.0228 22.0354 23.9342 22.0354ZM23.9342 15.5198C22.4252 15.5198 21.1861 16.749 21.1861 18.2679C21.1861 19.7869 22.4152 21.0161 23.9342 21.0161C25.4532 21.0161 26.6824 19.7869 26.6824 18.2679C26.6824 16.749 25.4532 15.5198 23.9342 15.5198Z" fill="#114668"/>
<path fill-rule="evenodd" clip-rule="evenodd" d="M29.8799 27.3518C28.9805 24.8434 26.5921 23.1646 23.9339 23.1646C21.2757 23.1646 18.8873 24.8434 17.9779 27.3518C17.758 27.9514 17.838 28.6209 18.2077 29.1506C18.5375 29.6302 19.0671 29.94 19.6467 29.99H24.4136C25.7027 29.98 26.9519 29.98 27.9312 29.97H28.0711C28.6907 29.97 29.2903 29.6602 29.6501 29.1406C30.0198 28.6209 30.0998 27.9514 29.8799 27.3518ZM23.2943 28.9707H19.8066C19.5068 28.9707 19.217 28.8208 19.0471 28.5709C18.8773 28.3311 18.8273 28.0413 18.9172 27.7515L18.9772 27.6216L19.0771 27.3717C19.9166 25.483 21.8553 24.2238 23.9339 24.2039H23.9539C26.1624 24.2238 28.1511 25.6329 28.8906 27.7115C29.0105 28.0013 28.9705 28.3111 28.7907 28.551C28.6308 28.8008 28.341 28.9507 28.0412 28.9507C26.792 28.9607 25.0032 28.9707 23.2943 28.9707Z" fill="#114668"/>
<path fill-rule="evenodd" clip-rule="evenodd" d="M5.04664 29.2804H4.86676C2.18854 29.2804 0 27.0919 0 24.4136V7.03523C0 4.35701 2.17855 2.17847 4.85676 2.17847H22.2352C24.9134 2.17847 27.1019 4.35701 27.1019 7.03523V10.6628C27.1019 10.9526 26.8721 11.1825 26.5823 11.1825C26.2925 11.1825 26.0626 10.9526 26.0626 10.6628V7.03523C26.0626 4.92663 24.3438 3.20778 22.2352 3.20778H4.85676C2.74817 3.20778 1.02931 4.92663 1.02931 7.03523V24.4136C1.02931 26.5222 2.74817 28.2411 4.85676 28.2411H13.541C13.8308 28.2411 14.0606 28.4709 14.0606 28.7607C14.0606 29.0506 13.8308 29.2804 13.541 29.2804H5.04664Z" fill="#114668"/>
<path fill-rule="evenodd" clip-rule="evenodd" d="M7.39514 5.37642C7.10534 5.37642 6.87549 5.14657 6.87549 4.85676V0.519654C6.87549 0.229847 7.10534 0 7.39514 0C7.68495 0 7.9148 0.229847 7.9148 0.519654V4.86676C7.9148 5.15656 7.68495 5.38641 7.39514 5.38641V5.37642Z" fill="#114668"/>
<path fill-rule="evenodd" clip-rule="evenodd" d="M19.7067 5.37642C19.4169 5.37642 19.187 5.14657 19.187 4.85676V0.519654C19.187 0.229847 19.4169 0 19.7067 0C19.9965 0 20.2263 0.229847 20.2263 0.519654V4.86676C20.2263 5.15656 19.9965 5.38641 19.7067 5.38641V5.37642Z" fill="#114668"/>
<path d="M7.87495 23.634C7.77502 23.6141 7.68508 23.5641 7.61513 23.4941L7.10547 22.9845C6.9056 22.7846 6.9056 22.4648 7.10547 22.255C7.21539 22.145 7.32532 22.0951 7.46523 22.0951C7.60513 22.0951 7.72505 22.145 7.82499 22.245L7.9549 22.3849L8.93425 21.4155C9.03418 21.3156 9.1541 21.2656 9.304 21.2656C9.44391 21.2656 9.57382 21.3156 9.68375 21.4155C9.77369 21.5055 9.82365 21.6354 9.82365 21.7753C9.82365 21.9152 9.76369 22.0351 9.67375 22.145L8.34464 23.4742C8.2547 23.5741 8.12479 23.6241 7.98488 23.6241H7.87495V23.634Z" fill="#114668"/>
<path d="M8.38461 25.9726C6.44591 25.9726 4.87695 24.3936 4.87695 22.4549C4.87695 20.5162 6.4559 18.9473 8.38461 18.9473C10.3133 18.9473 11.9023 20.5262 11.9023 22.4649C11.9023 24.4036 10.3233 25.9826 8.38461 25.9826V25.9726ZM8.38461 19.9666C7.01553 19.9666 5.89627 21.0858 5.89627 22.4549C5.89627 23.824 7.01553 24.9433 8.38461 24.9433C9.7537 24.9433 10.873 23.824 10.873 22.4549C10.873 21.0858 9.7537 19.9666 8.38461 19.9666Z" fill="#114668"/>
<path fill-rule="evenodd" clip-rule="evenodd" d="M5.60608 11.6423C5.31627 11.6423 5.08643 11.4125 5.08643 11.1227C5.08643 10.8329 5.31627 10.603 5.60608 10.603H10.0931C10.3829 10.603 10.6127 10.8329 10.6127 11.1227C10.6127 11.4125 10.3829 11.6423 10.0931 11.6423H5.60608Z" fill="#114668"/>
<path fill-rule="evenodd" clip-rule="evenodd" d="M5.60608 16.2791C5.31627 16.2791 5.08643 16.0492 5.08643 15.7594C5.08643 15.4696 5.31627 15.2397 5.60608 15.2397H12.8413C13.1311 15.2397 13.3609 15.4696 13.3609 15.7594C13.3609 16.0492 13.1311 16.2791 12.8413 16.2791H5.60608Z" fill="#114668"/>
</g>
<defs>
<clipPath id="clip0_582_836">
<rect width="30" height="30" fill="white"/>
</clipPath>
</defs>
</svg>
