<svg id="Leave_Manage" xmlns="http://www.w3.org/2000/svg" width="35" height="35" viewBox="0 0 35 35">
  <path id="Path_15640" data-name="Path 15640" d="M226.22,237.017h-1.566l-2.157-2.354a1.753,1.753,0,0,0-2.6,2.354h-1.09l-.648-.707a1.754,1.754,0,1,0-2.585,2.37l1.169,1.275a1.758,1.758,0,0,0,1.292.568H219.9a1.754,1.754,0,0,0,2.6,2.354l2.157-2.354h1.566a1.754,1.754,0,0,0,0-3.507m-5.41-1.6a.585.585,0,0,1,.825.036l1.433,1.564h-1.586l-.708-.774a.585.585,0,0,1,.036-.826m5.41,3.938H224.4a.586.586,0,0,0-.431.189l-2.33,2.544a.6.6,0,0,1-.827.035.585.585,0,0,1-.035-.826l.883-.963a.585.585,0,0,0-.431-.98h-3.187a.586.586,0,0,1-.431-.189l-1.169-1.275a.585.585,0,0,1,.862-.791l.821.9a.584.584,0,0,0,.431.189h7.667a.585.585,0,0,1,0,1.169" transform="translate(-195.311 -212.528)" fill="#124668"/>
  <path id="Path_15641" data-name="Path 15641" d="M32.19,19.829A8.737,8.737,0,0,0,28,17.682v-2.57a2.922,2.922,0,0,0,2.333-2.858V7.586a2.921,2.921,0,0,0-2.917-2.918h-.583V2.918a2.917,2.917,0,1,0-5.833,0V4.668H9.333V2.918a2.917,2.917,0,1,0-5.833,0V4.668H2.917A2.921,2.921,0,0,0,0,7.586v4.668a2.921,2.921,0,0,0,2.333,2.858v9.979A.584.584,0,0,0,2.5,25.5l7,7a.584.584,0,0,0,.413.171h10.4A8.746,8.746,0,0,0,32.19,19.829M22.167,2.918a1.75,1.75,0,1,1,3.5,0V7.586a1.75,1.75,0,1,1-3.5,0Zm-17.5,0a1.75,1.75,0,1,1,3.5,0V7.586a1.75,1.75,0,1,1-3.5,0Zm-3.5,9.336V7.586a1.752,1.752,0,0,1,1.75-1.751H3.5V7.586a2.917,2.917,0,1,0,5.833,0V5.835H21V7.586a2.917,2.917,0,1,0,5.833,0V5.835h.583a1.752,1.752,0,0,1,1.75,1.751v4.668A1.752,1.752,0,0,1,27.417,14H2.917a1.752,1.752,0,0,1-1.75-1.751M9.333,30.685l-5.009-5.01H7.583a1.752,1.752,0,0,1,1.75,1.751Zm1.167.825V27.425a2.921,2.921,0,0,0-2.917-2.918H3.5V15.171H26.833v2.364c-.194-.013-.386-.03-.583-.03a8.737,8.737,0,0,0-6.983,14Zm15.75,2.334a7.586,7.586,0,1,1,7.583-7.586,7.584,7.584,0,0,1-7.583,7.586" transform="translate(0 0)" fill="#124668"/>
  <path id="Path_15642" data-name="Path 15642" d="M245.685,127.71H241.01a.585.585,0,0,1,0-1.169h4.675a.585.585,0,0,1,0,1.169" transform="translate(-218.267 -114.871)" fill="#124668"/>
  <path id="Path_15643" data-name="Path 15643" d="M51.2,180.081a.584.584,0,0,1-.584-.585v-1.754a.584.584,0,0,1,.584-.585h2.922a.585.585,0,0,1,0,1.169H51.784V179.5a.584.584,0,0,1-.584.585" transform="translate(-45.94 -160.822)" fill="#124668"/>
  <path id="Path_15644" data-name="Path 15644" d="M51.2,221.447a.585.585,0,1,1-.584.585.584.584,0,0,1,.584-.585" transform="translate(-45.94 -201.025)" fill="#124668"/>
  <path id="Path_15645" data-name="Path 15645" d="M215.7,126.541a.585.585,0,1,1-.584.585.584.584,0,0,1,.584-.585" transform="translate(-195.286 -114.871)" fill="#124668"/>
  <path id="Path_15646" data-name="Path 15646" d="M54.123,14.408v4.676a1.753,1.753,0,1,1-3.506,0V14.408a1.753,1.753,0,1,1,3.506,0" transform="translate(-45.942 -11.485)" fill="#2f9495"/>
  <path id="Path_15647" data-name="Path 15647" d="M51.924,280.145v3.265l-5.017-5.019h3.264a1.755,1.755,0,0,1,1.753,1.754" transform="translate(-42.575 -252.733)" fill="#2f9495"/>
  <path id="Path_15648" data-name="Path 15648" d="M277.149,248.51h-1.586l-.709-.774a.585.585,0,0,1,.861-.791Z" transform="translate(-249.378 -224.002)" fill="#2f9495"/>
  <path id="Path_15649" data-name="Path 15649" d="M238.311,266.472a.584.584,0,0,1-.584.584H235.9a.586.586,0,0,0-.431.189l-2.33,2.544a.6.6,0,0,1-.827.035.585.585,0,0,1-.035-.826l.883-.963a.585.585,0,0,0-.431-.98h-3.187a.586.586,0,0,1-.431-.189l-1.169-1.275a.585.585,0,0,1,.862-.791l.821.9a.584.584,0,0,0,.431.189h7.667a.584.584,0,0,1,.584.585" transform="translate(-206.817 -240.229)" fill="#2f9495"/>
  <path id="Path_15650" data-name="Path 15650" d="M243.935,14.408v4.676a1.753,1.753,0,1,1-3.506,0V14.408a1.753,1.753,0,1,1,3.506,0" transform="translate(-218.267 -11.485)" fill="#2f9495"/>
</svg>
