<svg xmlns="http://www.w3.org/2000/svg" xmlns:xlink="http://www.w3.org/1999/xlink" width="256" height="256" viewBox="0 0 256 256">
  <defs>
    <clipPath id="clip-path">
      <rect id="Rectangle_17601" data-name="Rectangle 17601" width="256" height="256" rx="10" transform="translate(7922 679)" fill="#fff"/>
    </clipPath>
  </defs>
  <g id="pdf" transform="translate(-7922 -679)">
    <g id="Mask_Group_11" data-name="Mask Group 11" clip-path="url(#clip-path)">
      <g id="Layer_2" data-name="Layer 2" transform="translate(7946.947 679)">
        <g id="Portable_Document_Format_File" data-name="Portable Document Format File">
          <path id="Path_15508" data-name="Path 15508" d="M176,256H55.5a30.135,30.135,0,0,1-30.1-30.1V186.59a5,5,0,0,1,10,0V225.9A20.125,20.125,0,0,0,55.5,246H176a20.13,20.13,0,0,0,20.1-20.1V180.855a5,5,0,0,1,10,0V225.9A30.14,30.14,0,0,1,176,256Z" fill="#fff"/>
          <path id="Path_15509" data-name="Path 15509" d="M201.085,171.555a5,5,0,0,1-5-5V51.925a10.08,10.08,0,0,0-3.38-7.5L156.855,12.56a10.055,10.055,0,0,0-6.68-2.56H60.5A25.15,25.15,0,0,0,35.39,35.125V96.06a5,5,0,1,1-10,0V35.125A35.16,35.16,0,0,1,60.5,0h89.675A20.052,20.052,0,0,1,163.5,5.068L199.35,36.935a20.06,20.06,0,0,1,6.735,15v114.62a5,5,0,0,1-5,5Z" fill="#fff"/>
          <path id="Path_15510" data-name="Path 15510" d="M200.83,54.28H170.96A20.085,20.085,0,0,1,150.9,34.22V6.155a5,5,0,0,1,10,0V34.22a10.07,10.07,0,0,0,10.06,10.06h29.87a5,5,0,0,1,0,10Z" fill="#fff"/>
          <path id="Path_15511" data-name="Path 15511" d="M141.125,166.44a5,5,0,0,1-5-5V121.205a5,5,0,0,1,5-5h16.31a5,5,0,0,1,0,10h-11.31V161.44A5,5,0,0,1,141.125,166.44Z" fill="#fff"/>
          <path id="Path_15512" data-name="Path 15512" d="M156.14,145.94h-15a5,5,0,1,1,0-10h15a5,5,0,0,1,0,10Z" fill="#fff"/>
          <path id="Path_15513" data-name="Path 15513" d="M91.35,165.79a5,5,0,0,1-5-5V121.25a5,5,0,0,1,10,0v39.54a5,5,0,0,1-5,5Z" fill="#fff"/>
          <path id="Path_15514" data-name="Path 15514" d="M91.435,166.44a5,5,0,0,1-5-5c0-.145-.055-14.65-.055-20.18,0-4.59-.03-20.065-.03-20.065a5,5,0,0,1,5-5h11.395c12.71,0,21.25,10.1,21.25,25.12,0,14.29-8.76,24.815-20.825,25.025-3.25.06-11.375.09-11.72.09Zm4.925-40.235V141.28c0,3.44,0,10.375.035,15.135,2.4,0,5.07-.035,6.58-.06,7.6-.135,11-7.645,11-15.03,0-7.31-2.955-15.12-11.25-15.12Z" fill="#fff"/>
          <path id="Path_15515" data-name="Path 15515" d="M48.585,166.44a5,5,0,0,1-5-5V121.205a5,5,0,0,1,10,0V161.44A5,5,0,0,1,48.585,166.44Z" fill="#fff"/>
          <path id="Path_15516" data-name="Path 15516" d="M48.66,148.965a5,5,0,0,1-5-4.97c0-.08-.05-8.295-.05-11.435V121.22a5,5,0,0,1,5-5h11.2a16.357,16.357,0,1,1,0,32.71c-3.055,0-11,.05-11.09.05ZM53.6,126.2v12.73h6.15a6.359,6.359,0,1,0,0-12.71Z" fill="#fff"/>
          <path id="Path_15517" data-name="Path 15517" d="M25.185,215.5H17.5a17.5,17.5,0,1,1,0-35H40.21a5,5,0,0,1,0,10H17.5a7.5,7.5,0,0,0,0,15h7.7a5,5,0,0,1,0,10Z" fill="#fff"/>
          <path id="Path_15518" data-name="Path 15518" d="M5.065,201.56a5,5,0,0,1-5-5l.215-88a17.5,17.5,0,0,1,17.5-17.47L201.1,91.055a5,5,0,0,1,5,5V185.5a5,5,0,0,1-5,5H22.77a5,5,0,1,1,0-10H196.085V101.025l-178.32.035a7.5,7.5,0,0,0-7.5,7.5l-.215,88a5,5,0,0,1-4.985,5Z" fill="#fff"/>
        </g>
      </g>
    </g>
  </g>
</svg>
