<svg xmlns="http://www.w3.org/2000/svg" xmlns:xlink="http://www.w3.org/1999/xlink" fill="none" version="1.1" width="251.6400146484375" height="139.20745849609375" viewBox="0 0 251.6400146484375 139.20745849609375"><g><path d="M251.64,0C251.64,0,251.64,47.83,251.64,47.83C239.99,66.08,229.94,85.96,217.25,103.07C203.81,121.19,186.55,136.46,166.94,138.92C147.33,141.39,125.64,127.79,120,104.03C114.96,82.78,122.87,57.53,113.38,38.84C106.14,24.59,91.19,19.85,77.74,20.21C64.29,20.58,50.89,24.75,37.5,23.17C23.35,21.49,9.75,13.02,0,0C0,0,251.64,0,251.64,0C251.64,0,251.64,0,251.64,0Z" fill="#57CC99" fill-opacity="1" style="mix-blend-mode:passthrough"/></g></svg>