<?xml version="1.0" encoding="utf-8"?>
<!-- Generator: Adobe Illustrator 16.0.2, SVG Export Plug-In . SVG Version: 6.00 Build 0)  -->
<!DOCTYPE svg PUBLIC "-//W3C//DTD SVG 1.1//EN" "http://www.w3.org/Graphics/SVG/1.1/DTD/svg11.dtd">
<svg version="1.1" id="Layer_1" xmlns="http://www.w3.org/2000/svg" xmlns:xlink="http://www.w3.org/1999/xlink" x="0px" y="0px"
	 width="500px" height="500px" viewBox="0 0 500 500" enable-background="new 0 0 500 500" xml:space="preserve">
<g id="BACKGROUND">
</g>
<g id="OBJECTS">
	<g>
		<g>
			<path fill="#C41A58" d="M132.929,134.054c-12.815,13.206-23.28,28.544-30.893,45.284l15.287-1.292l8.492,12.668
				c6.471-14.386,15.464-27.542,26.521-38.808C146.017,145.799,139.467,139.931,132.929,134.054z"/>
		</g>
		<g>
			<path fill="#C41A58" d="M367.071,134.054c12.814,13.206,23.279,28.544,30.892,45.284l-15.287-1.292l-8.493,12.668
				c-6.471-14.386-15.464-27.542-26.521-38.808C353.984,145.799,360.534,139.931,367.071,134.054z"/>
		</g>
	</g>
	<g>
		<path fill="#FF4A71" d="M141.894,173.12c24.081-33.765,63.565-55.822,108.106-55.822c44.52,0,83.986,22.037,108.071,55.773
			l21.095-15.807C350.261,117.119,303.134,90.927,250,90.927c-53.156,0-100.3,26.212-129.201,66.385L141.894,173.12z"/>
	</g>
	<g>
		<g>
			<circle fill="#D5F7DB" cx="250" cy="250" r="124.272"/>
		</g>
		<g>
			<path fill="#D5F7DB" d="M250,378.883c-71.066,0-128.883-57.816-128.883-128.883c0-71.066,57.817-128.883,128.883-128.883
				c71.066,0,128.883,57.817,128.883,128.883C378.883,321.066,321.066,378.883,250,378.883z M250,122.117
				c-70.515,0-127.883,57.368-127.883,127.883c0,70.516,57.368,127.883,127.883,127.883c70.515,0,127.883-57.367,127.883-127.883
				C377.883,179.485,320.515,122.117,250,122.117z"/>
		</g>
	</g>
	<g>
		<g>
			<polygon fill="#F198F4" points="167.559,171.611 220.79,368.877 235.563,357.012 253.534,360.042 200.304,162.775 			"/>
			<path fill="#FFBB22" d="M212.312,266.104c12.686-1.31,25.324-3.018,37.951-4.807l-29.89-110.77l-42.214,11.391l28.268,104.758
				C208.389,266.495,210.351,266.307,212.312,266.104z"/>
			<path fill="#7B53DB" d="M325.833,326.208l-122.462,33.045c-6.155,1.661-12.492-1.981-14.153-8.138l-42.169-156.274
				c-1.661-6.156,1.982-12.492,8.138-14.153l122.461-33.045c6.156-1.661,12.492,1.982,14.152,8.138l42.169,156.273
				C335.631,318.21,331.988,324.547,325.833,326.208z"/>
			<g>
				<g>
					<g>
						<circle fill="#531F59" cx="158.997" cy="199.672" r="5.958"/>
						<path fill="#522058" d="M158.986,206.633c-1.202,0-2.388-0.314-3.458-0.929c-1.611-0.926-2.765-2.425-3.249-4.219
							c-1-3.704,1.2-7.53,4.904-8.53c3.705-1,7.531,1.201,8.53,4.905l0,0c1,3.704-1.2,7.531-4.904,8.53
							C160.207,206.552,159.595,206.633,158.986,206.633z M159.004,194.712c-0.433,0-0.869,0.058-1.299,0.173
							c-2.639,0.712-4.207,3.439-3.495,6.078c0.345,1.279,1.167,2.346,2.315,3.006c1.147,0.66,2.481,0.834,3.763,0.489
							c2.639-0.712,4.207-3.439,3.495-6.078l0,0c-0.345-1.278-1.167-2.346-2.315-3.006
							C160.706,194.936,159.861,194.712,159.004,194.712z"/>
					</g>
					<path fill="#FFFFFF" d="M159.999,203.895l-14.065,3.795c-2.313,0.624-4.694-0.745-5.318-3.058l0,0
						c-0.624-2.313,0.745-4.694,3.058-5.318l14.065-3.795c2.313-0.624,4.694,0.745,5.318,3.058l0,0
						C163.681,200.89,162.312,203.271,159.999,203.895z"/>
				</g>
				<g>
					<g>
						<circle fill="#531F59" cx="166.599" cy="227.844" r="5.958"/>
						<path fill="#522058" d="M166.601,234.803c-3.067,0-5.883-2.047-6.719-5.146c-1-3.704,1.2-7.53,4.904-8.53
							c1.793-0.483,3.669-0.241,5.281,0.686c1.611,0.926,2.765,2.425,3.249,4.219l0,0c1,3.704-1.2,7.531-4.904,8.53
							C167.807,234.725,167.199,234.803,166.601,234.803z M166.606,222.884c-0.433,0-0.869,0.058-1.299,0.173
							c-2.639,0.712-4.207,3.439-3.495,6.078c0.345,1.279,1.167,2.346,2.315,3.006c1.147,0.66,2.482,0.834,3.763,0.489
							c2.639-0.712,4.207-3.439,3.495-6.078l0,0c-0.345-1.278-1.167-2.346-2.315-3.006
							C168.308,223.108,167.463,222.884,166.606,222.884z"/>
					</g>
					<path fill="#FFFFFF" d="M167.601,232.067l-14.065,3.795c-2.313,0.624-4.694-0.745-5.318-3.058l0,0
						c-0.624-2.313,0.745-4.694,3.058-5.318l14.065-3.795c2.313-0.624,4.694,0.745,5.318,3.058l0,0
						C171.283,229.062,169.914,231.443,167.601,232.067z"/>
				</g>
				<g>
					<g>
						<circle fill="#531F59" cx="174.201" cy="256.017" r="5.958"/>
						<path fill="#522058" d="M174.203,262.977c-3.067,0-5.883-2.047-6.719-5.146c-1-3.704,1.2-7.53,4.904-8.53
							c1.795-0.485,3.67-0.241,5.281,0.686c1.611,0.926,2.765,2.425,3.249,4.219l0,0c1,3.704-1.2,7.531-4.904,8.529
							C175.409,262.896,174.801,262.977,174.203,262.977z M174.209,251.057c-0.434,0-0.87,0.059-1.3,0.174
							c-2.64,0.711-4.208,3.438-3.495,6.078c0.345,1.278,1.167,2.346,2.315,3.006c1.147,0.66,2.482,0.834,3.763,0.488
							c2.639-0.712,4.207-3.438,3.495-6.078l0,0c-0.345-1.277-1.167-2.346-2.315-3.006
							C175.911,251.28,175.065,251.057,174.209,251.057z"/>
					</g>
					<path fill="#FFFFFF" d="M175.203,260.239l-14.065,3.795c-2.313,0.624-4.694-0.745-5.318-3.058l0,0
						c-0.624-2.313,0.745-4.694,3.058-5.318l14.065-3.795c2.313-0.624,4.694,0.744,5.318,3.058l0,0
						C178.885,257.234,177.516,259.615,175.203,260.239z"/>
				</g>
				<g>
					<g>
						<circle fill="#531F59" cx="181.803" cy="284.188" r="5.958"/>
						<path fill="#522058" d="M181.805,291.148c-3.067,0-5.883-2.047-6.719-5.146c-1-3.704,1.2-7.529,4.904-8.529
							c1.795-0.485,3.67-0.242,5.281,0.686c1.611,0.926,2.765,2.425,3.249,4.219l0,0c1,3.704-1.2,7.531-4.904,8.53
							C183.011,291.07,182.403,291.148,181.805,291.148z M181.812,279.229c-0.434,0-0.87,0.059-1.3,0.174
							c-2.64,0.712-4.208,3.438-3.495,6.078c0.345,1.278,1.167,2.346,2.315,3.006c1.147,0.66,2.482,0.834,3.763,0.488
							c2.639-0.711,4.207-3.438,3.495-6.078l0,0c-0.345-1.277-1.167-2.346-2.315-3.006
							C183.513,279.453,182.667,279.229,181.812,279.229z"/>
					</g>
					<path fill="#FFFFFF" d="M182.805,288.412l-14.065,3.795c-2.313,0.624-4.693-0.745-5.318-3.059l0,0
						c-0.624-2.313,0.745-4.693,3.058-5.317l14.065-3.795c2.313-0.624,4.694,0.745,5.318,3.058l0,0
						C186.487,285.407,185.118,287.788,182.805,288.412z"/>
				</g>
				<g>
					<g>
						<circle fill="#531F59" cx="189.405" cy="312.36" r="5.958"/>
						<path fill="#522058" d="M189.407,319.32c-3.067,0-5.883-2.047-6.719-5.146c-1-3.703,1.2-7.529,4.904-8.529
							c1.796-0.485,3.67-0.242,5.281,0.686c1.611,0.926,2.765,2.425,3.249,4.219l0,0c1,3.704-1.201,7.531-4.904,8.531
							C190.613,319.242,190.005,319.32,189.407,319.32z M189.414,307.4c-0.434,0-0.87,0.059-1.3,0.174
							c-2.64,0.712-4.208,3.439-3.495,6.078c0.345,1.279,1.167,2.346,2.315,3.006c1.147,0.66,2.482,0.833,3.763,0.488
							c2.639-0.711,4.207-3.438,3.495-6.078l0,0c-0.345-1.278-1.167-2.346-2.315-3.006C191.115,307.625,190.27,307.4,189.414,307.4z
							"/>
					</g>
					<path fill="#FFFFFF" d="M190.407,316.584l-14.065,3.795c-2.313,0.624-4.694-0.745-5.318-3.059l0,0
						c-0.624-2.313,0.745-4.693,3.058-5.317l14.065-3.795c2.313-0.624,4.694,0.745,5.318,3.058l0,0
						C194.089,313.579,192.72,315.96,190.407,316.584z"/>
				</g>
				<g>
					<g>
						<circle fill="#531F59" cx="197.007" cy="340.534" r="5.958"/>
						<path fill="#522058" d="M197.009,347.493c-3.067,0-5.883-2.048-6.719-5.146c-0.484-1.795-0.241-3.67,0.686-5.281
							c0.927-1.612,2.425-2.766,4.219-3.25c1.794-0.484,3.67-0.24,5.281,0.687s2.765,2.425,3.249,4.22l0,0
							c1,3.703-1.201,7.53-4.904,8.53C198.215,347.415,197.607,347.493,197.009,347.493z M197.016,335.574
							c-0.434,0-0.87,0.058-1.3,0.173c-1.279,0.345-2.346,1.167-3.006,2.315c-0.66,1.147-0.833,2.483-0.489,3.763
							c0.345,1.278,1.167,2.346,2.315,3.006c1.147,0.66,2.482,0.833,3.763,0.489c2.639-0.713,4.207-3.439,3.495-6.079l0,0
							c-0.345-1.278-1.167-2.347-2.315-3.007C198.717,335.797,197.872,335.574,197.016,335.574z"/>
					</g>
					<path fill="#FFFFFF" d="M198.009,344.756l-14.065,3.795c-2.313,0.624-4.694-0.744-5.318-3.058l0,0
						c-0.624-2.313,0.745-4.694,3.058-5.318l14.065-3.795c2.313-0.624,4.694,0.745,5.318,3.058l0,0
						C201.691,341.751,200.322,344.132,198.009,344.756z"/>
				</g>
			</g>
		</g>
		<g>
			<g>
				<path fill="#531F59" d="M212.654,277.953l-3.688-43.283c-0.004-0.17,0.075-0.278,0.235-0.321l8.711-2.351
					c0.16-0.043,0.282,0.011,0.366,0.159l18.286,39.344c0.093,0.19,0.041,0.312-0.159,0.365l-6.668,1.799
					c-0.161,0.043-0.288-0.029-0.381-0.219l-1.844-4.208l-8.17,2.205l0.522,4.563c0.014,0.212-0.06,0.338-0.219,0.382l-6.668,1.799
					C212.814,278.232,212.708,278.154,212.654,277.953z M218.808,264.691l5.767-1.557l-7.019-16.217l-0.96-2.125l0.359,2.288
					L218.808,264.691z"/>
				<path fill="#531F59" d="M240.669,270.715c-0.16,0.043-0.267-0.033-0.321-0.234l-11.017-41.306
					c-0.043-0.159,0.015-0.262,0.176-0.306l11.535-3.112c2.283-0.616,4.474-0.616,6.573-0.001c2.1,0.616,3.912,1.684,5.441,3.205
					c1.527,1.521,2.577,3.343,3.15,5.466c0.465,1.722,0.507,3.43,0.125,5.122c-0.381,1.693-0.988,3.146-1.821,4.359
					c1.476,0.848,2.738,1.946,3.79,3.295c1.051,1.35,1.805,2.864,2.26,4.546c0.625,2.323,0.638,4.597,0.035,6.822
					c-0.603,2.225-1.701,4.165-3.295,5.819c-1.595,1.655-3.554,2.797-5.876,3.424L240.669,270.715z M245.721,261.49l3.725-1.006
					c1.443-0.389,2.541-1.254,3.295-2.598c0.754-1.341,0.938-2.734,0.549-4.176s-1.246-2.542-2.567-3.304
					c-1.323-0.76-2.705-0.946-4.146-0.557l-3.665,0.989L245.721,261.49z M240.95,243.571l4.566-1.232
					c1.401-0.378,2.4-1.173,2.997-2.387c0.596-1.214,0.738-2.401,0.424-3.563c-0.346-1.281-1.106-2.268-2.282-2.961
					c-1.175-0.691-2.403-0.866-3.685-0.521l-4.566,1.232L240.95,243.571z"/>
				<path fill="#531F59" d="M279.52,260.877c-2.203,0.594-4.345,0.581-6.422-0.04c-2.08-0.62-3.89-1.711-5.428-3.272
					c-1.54-1.561-2.615-3.482-3.232-5.767l-4.998-18.76c-0.594-2.202-0.625-4.353-0.097-6.451c0.53-2.098,1.537-3.938,3.022-5.521
					c1.484-1.582,3.328-2.67,5.531-3.265c2.203-0.594,4.33-0.588,6.385,0.018c2.054,0.606,3.847,1.68,5.381,3.22
					c1.533,1.542,2.604,3.434,3.208,5.676l0.746,2.763c0.043,0.161-0.017,0.263-0.175,0.306l-6.729,1.815
					c-0.161,0.043-0.262-0.015-0.306-0.175l-0.746-2.764c-0.355-1.321-1.096-2.347-2.215-3.076c-1.121-0.729-2.322-0.92-3.604-0.574
					c-1.442,0.389-2.411,1.177-2.907,2.363c-0.496,1.188-0.57,2.421-0.226,3.702l5.058,18.744c0.4,1.482,1.154,2.568,2.266,3.256
					c1.109,0.688,2.285,0.866,3.525,0.53c1.282-0.346,2.215-1.146,2.801-2.398s0.707-2.521,0.359-3.803l-0.744-2.764
					c-0.043-0.16,0.015-0.262,0.174-0.305l6.789-1.832c0.16-0.043,0.263,0.016,0.306,0.176l0.746,2.763
					c0.616,2.283,0.642,4.49,0.077,6.619c-0.564,2.129-1.578,3.981-3.043,5.559S281.723,260.283,279.52,260.877z"/>
			</g>
		</g>
		<path fill="#531F59" d="M204.568,290.365c-0.22,0-0.422-0.147-0.482-0.37l-16.032-59.411c-0.034-0.128-0.017-0.265,0.049-0.379
			c0.066-0.115,0.175-0.199,0.303-0.234l99.463-26.839c0.267-0.069,0.541,0.086,0.613,0.353l16.031,59.412
			c0.034,0.127,0.018,0.265-0.049,0.379c-0.065,0.115-0.175,0.199-0.303,0.233l-99.463,26.839
			C204.655,290.359,204.611,290.365,204.568,290.365z M189.149,230.806l15.771,58.446l98.498-26.579l-15.771-58.446L189.149,230.806
			z"/>
	</g>
	<g>
		<path fill="#522058" d="M281.253,358.206L281.253,358.206c-2.987-1.008-4.592-4.247-3.584-7.233l4.843-14.355
			c1.008-2.987,4.247-4.592,7.233-3.584l0,0c2.987,1.008,4.592,4.246,3.584,7.232l-4.843,14.355
			C287.479,357.607,284.241,359.213,281.253,358.206z"/>
		<g>
			<path fill="#FF4A71" d="M361.089,193.56l-23.123,68.538c-1.117,3.311-4.14,5.631-7.562,5.687
				c-1.285,0.021-2.498,0.21-3.646,0.549c-2.458,0.728-5.046,0.343-7.12-1.14c-4.116-2.943-8.807-4.526-14.108-4.652
				c-2.555-0.061-4.836-1.463-6.356-3.535c-0.703-0.958-1.499-1.828-2.405-2.59c-2.596-2.182-3.605-5.768-2.5-9.045l23.129-68.553
				c1.467-4.35,6.102-6.714,10.35-5.281l28.307,9.55C360.302,184.522,362.556,189.21,361.089,193.56z"/>
			<path fill="#FFFFFF" d="M273.904,307.729l4.972,35.848c0.067,0.488,0.399,0.893,0.856,1.048l10.947,3.692
				c0.416,0.141,0.877,0.031,1.194-0.284l25.724-25.563l-18.396-24.4L273.904,307.729z"/>
			<path fill="#FFBB22" d="M345.567,239.567l-27.97,82.904c-5.111-1.529-9.252-0.798-12.725,1.483
				c-4.07-7.472-14.588-10.776-21.743-7.335c-1.858-4.131-4.621-7.395-9.226-8.891l27.97-82.902L345.567,239.567z"/>
			
				<rect x="319.246" y="233.409" transform="matrix(-0.9476 -0.3194 0.3194 -0.9476 533.3268 647.2634)" fill="#E59A15" width="1" height="92.967"/>
			
				<rect x="297.503" y="226.075" transform="matrix(-0.9476 -0.3194 0.3194 -0.9476 493.3217 626.0328)" fill="#E59A15" width="1" height="92.967"/>
			<path fill="#FFFFFF" d="M354.633,215.793l-9.36,27.748c-0.204,0.604-0.86,0.93-1.466,0.726l-43.38-14.635
				c-0.604-0.204-0.93-0.86-0.726-1.465l9.36-27.748c0.204-0.604,0.86-0.93,1.466-0.726l43.38,14.635
				C354.513,214.533,354.837,215.188,354.633,215.793z"/>
			<g>
				<g>
					
						<rect x="299.602" y="231.863" transform="matrix(-0.9475 -0.3197 0.3197 -0.9475 556.0248 556.0011)" fill="#FAEED6" width="48.093" height="1"/>
					
						<rect x="300.791" y="228.34" transform="matrix(-0.9475 -0.3197 0.3197 -0.9475 559.4644 549.5231)" fill="#FAEED6" width="48.094" height="1"/>
				</g>
				<g>
					
						<rect x="305.417" y="214.63" transform="matrix(-0.9475 -0.3197 0.3197 -0.9475 572.8569 524.3007)" fill="#FAEED6" width="48.094" height="1"/>
					
						<rect x="306.608" y="211.104" transform="matrix(-0.9475 -0.3197 0.3197 -0.9475 576.3033 517.8157)" fill="#FAEED6" width="48.094" height="1"/>
				</g>
			</g>
		</g>
	</g>
	<g>
		<g>
			<path fill="#FFFFFF" d="M290.23,182.412l-47.305-22.344c-2.105-0.995-3.006-3.508-2.012-5.613l8.624-18.259
				c0.995-2.105,3.508-3.006,5.614-2.012l47.305,22.343c2.105,0.995,3.007,3.508,2.012,5.614l-8.623,18.259
				C294.852,182.505,292.337,183.406,290.23,182.412z"/>
		</g>
		<path fill="#C9C943" d="M283.492,180.226l-34.597-16.341c-0.404-0.191-0.577-0.673-0.386-1.077l12.306-26.053
			c0.19-0.404,0.672-0.577,1.076-0.386l34.598,16.341c0.404,0.19,0.578,0.673,0.387,1.077l-12.307,26.052
			C284.378,180.244,283.896,180.417,283.492,180.226z"/>
	</g>
	<g>
		<circle fill="#FF4A71" cx="121.617" cy="333.586" r="5.23"/>
		<circle fill="#FF4A71" cx="378.383" cy="333.586" r="5.23"/>
	</g>
</g>
<g id="TEXT">
	<g>
		<circle fill="none" cx="250" cy="250" r="140.548"/>
		<path fill="#FFFFFF" d="M160.741,133.321l2.116-1.605l1.085,1.431l-2.116,1.604l1.649,2.176l2.826-2.143l1.086,1.43l-4.459,3.38
			l-5.522-7.283l0.772-2.372l2.637-1.999l1.093,1.442l-2.198,1.667l-0.205,0.639L160.741,133.321z"/>
		<path fill="#FFFFFF" d="M166.846,124.704c0.267-0.787,0.54-1.273,0.822-1.457c0.282-0.183,0.896-0.196,1.843-0.039
			c0.946,0.157,1.6,0.359,1.962,0.607c0.232,0.157,0.631,0.67,1.198,1.54l0.955,1.467c0.568,0.871,0.875,1.443,0.924,1.718
			c0.062,0.42-0.03,1.067-0.275,1.941c-0.246,0.874-0.534,1.419-0.866,1.635l-2.574,1.675l-3.464-5.321
			c-0.437-0.671-0.793-1.113-1.067-1.324c-0.272-0.212-0.685-0.404-1.234-0.577l0.896-2.213
			C166.226,124.376,166.519,124.492,166.846,124.704z M168.801,125.042c-0.24,0.157-0.487,0.43-0.741,0.819
			c0.138,0.158,0.323,0.415,0.555,0.771l2.956,4.538l0.858-0.559c0.116-0.076,0.2-0.25,0.251-0.526
			c0.051-0.275,0.059-0.511,0.026-0.708c-0.034-0.197-0.272-0.635-0.715-1.314l-1.037-1.592c-0.442-0.68-0.746-1.074-0.912-1.185
			c-0.166-0.111-0.386-0.198-0.658-0.262S168.918,124.967,168.801,125.042z"/>
		<path fill="#FFFFFF" d="M180.274,116.06l2.917,5.321c0.5,0.91,0.764,1.505,0.792,1.783c0.048,0.437-0.083,1.109-0.392,2.017
			c-0.309,0.908-0.618,1.448-0.931,1.619c-0.312,0.172-0.934,0.143-1.866-0.085s-1.569-0.479-1.912-0.754
			c-0.219-0.173-0.578-0.715-1.077-1.625l-1.035-1.887c-0.385-0.702-0.707-1.169-0.962-1.401c-0.257-0.231-0.653-0.455-1.188-0.669
			l0.962-1.948c0.377,0.03,0.809,0.253,1.297,0.667c0.486,0.416,0.929,0.988,1.329,1.716l1.393,2.537
			c0.39,0.711,0.663,1.127,0.82,1.25c0.158,0.123,0.369,0.226,0.636,0.312c0.267,0.084,0.46,0.094,0.583,0.027
			c0.121-0.067,0.218-0.235,0.29-0.506c0.07-0.27,0.097-0.505,0.079-0.704c-0.018-0.199-0.222-0.653-0.612-1.365l-2.918-5.32
			L180.274,116.06z"/>
		<path fill="#FFFFFF" d="M186.863,119.34l-0.58-1.269c-0.514-1.124-0.753-1.885-0.716-2.283c0.036-0.397,0.226-1,0.567-1.809
			c0.344-0.809,0.658-1.279,0.946-1.411c0.495-0.226,1.192-0.199,2.091,0.08c0.901,0.279,1.593,0.722,2.076,1.327l-1.023,1.724
			c-0.366-0.42-0.801-0.762-1.302-1.028c-0.502-0.266-0.816-0.37-0.943-0.312c-0.224,0.103-0.38,0.44-0.466,1.013
			c-0.038,0.225,0.171,0.841,0.632,1.849l0.58,1.268c0.474,1.035,0.801,1.598,0.984,1.688c0.489,0.309,0.845,0.412,1.071,0.31
			c0.127-0.058,0.264-0.336,0.418-0.836c0.152-0.499,0.201-0.997,0.147-1.495l1.979,0.368c0.112,0.699-0.032,1.453-0.435,2.262
			c-0.403,0.809-0.851,1.327-1.346,1.553c-0.288,0.131-0.851,0.062-1.686-0.208c-0.836-0.271-1.417-0.522-1.74-0.755
			C187.796,121.144,187.377,120.465,186.863,119.34z"/>
		<path fill="#FFFFFF" d="M196.174,109.777c0.434-0.847,0.823-1.335,1.165-1.462c0.345-0.128,0.957-0.012,1.838,0.345
			c0.883,0.358,1.476,0.702,1.778,1.033c0.202,0.23,0.479,0.819,0.831,1.765l2.116,5.687l-1.919,0.714l-0.776-2.085l-1.919,0.714
			l0.777,2.086l-1.919,0.714l-2.117-5.687c-0.353-0.945-0.527-1.572-0.524-1.878C195.517,111.272,195.74,110.625,196.174,109.777z
			 M197.948,112.885l0.719,1.933l1.919-0.714l-0.719-1.933c-0.283-0.76-0.494-1.212-0.631-1.356c-0.138-0.145-0.333-0.277-0.584-0.4
			c-0.25-0.123-0.441-0.16-0.572-0.112c-0.129,0.048-0.25,0.201-0.359,0.459c-0.111,0.257-0.171,0.485-0.182,0.684
			C197.528,111.645,197.665,112.125,197.948,112.885z"/>
		<path fill="#FFFFFF" d="M206.328,111.603l-0.39-1.339c-0.346-1.187-0.473-1.974-0.38-2.361c0.092-0.388,0.366-0.958,0.823-1.709
			c0.456-0.751,0.834-1.171,1.139-1.26c0.522-0.153,1.208-0.025,2.059,0.381c0.85,0.406,1.471,0.944,1.861,1.612l-1.261,1.558
			c-0.302-0.468-0.682-0.87-1.14-1.205c-0.458-0.335-0.753-0.483-0.887-0.444c-0.236,0.068-0.439,0.38-0.607,0.935
			c-0.071,0.217,0.049,0.856,0.359,1.92l0.39,1.339c0.32,1.092,0.563,1.696,0.73,1.812c0.439,0.377,0.779,0.53,1.015,0.461
			c0.134-0.038,0.311-0.294,0.534-0.766c0.223-0.472,0.344-0.958,0.364-1.458l1.904,0.65c0.011,0.708-0.241,1.433-0.756,2.176
			c-0.515,0.743-1.033,1.19-1.555,1.342c-0.305,0.088-0.85-0.061-1.639-0.449c-0.788-0.388-1.326-0.72-1.613-0.998
			C206.992,113.521,206.674,112.789,206.328,111.603z"/>
		<path fill="#FFFFFF" d="M217.586,113.189l-2.32-10.124l1.997-0.457l2.319,10.124L217.586,113.189z"/>
		<path fill="#FFFFFF" d="M227.984,110.332c-0.59,0.756-1.061,1.164-1.411,1.223c-0.352,0.06-0.93-0.172-1.734-0.693
			c-0.806-0.521-1.324-0.968-1.558-1.34c-0.15-0.235-0.312-0.865-0.484-1.89l-0.292-1.727c-0.172-1.023-0.227-1.671-0.161-1.943
			c0.098-0.428,0.442-1.02,1.032-1.776c0.589-0.757,1.06-1.165,1.411-1.224c0.352-0.059,0.929,0.172,1.734,0.693
			c0.805,0.521,1.324,0.969,1.558,1.34c0.15,0.236,0.312,0.866,0.484,1.89l0.29,1.726c0.174,1.024,0.227,1.672,0.163,1.944
			C228.918,108.983,228.574,109.576,227.984,110.332z M226.086,98.758c0.257,0.337,0.396,0.564,0.415,0.682
			c0.02,0.117-0.352,0.32-1.115,0.609c-0.763,0.289-1.233,0.449-1.409,0.478c-0.039,0.006-0.113-0.076-0.222-0.249
			c-0.11-0.172-0.169-0.285-0.177-0.338c-0.01-0.053,0.301-0.342,0.929-0.864c0.629-0.522,0.993-0.792,1.09-0.808
			C225.665,98.257,225.829,98.42,226.086,98.758z M225.68,109.246c0.224,0.168,0.404,0.24,0.541,0.218
			c0.136-0.023,0.283-0.151,0.44-0.383c0.155-0.232,0.258-0.444,0.305-0.639c0.047-0.193,0.003-0.69-0.131-1.49l-0.29-1.727
			c-0.135-0.799-0.257-1.283-0.365-1.45c-0.109-0.168-0.275-0.335-0.499-0.502c-0.224-0.168-0.405-0.241-0.541-0.217
			c-0.137,0.023-0.283,0.15-0.44,0.382c-0.156,0.233-0.258,0.445-0.305,0.639c-0.049,0.194-0.005,0.691,0.131,1.49l0.29,1.726
			c0.135,0.8,0.257,1.284,0.365,1.451S225.457,109.078,225.68,109.246z"/>
		<path fill="#FFFFFF" d="M235.027,102.323l0.075,0.634l0.682,7.179l-2.039,0.194l-0.6-6.323c-0.079-0.827-0.19-1.403-0.335-1.727
			c-0.146-0.324-0.422-0.705-0.831-1.143l1.654-1.409c0.303,0.161,0.599,0.455,0.889,0.885c0.717-0.714,1.214-1.084,1.49-1.11
			c0.276-0.026,0.735,0.191,1.381,0.651c0.644,0.46,1.05,0.79,1.219,0.987c0.167,0.198,0.267,0.469,0.3,0.813l0.741,7.814
			l-2.054,0.195l-0.712-7.519c-0.009-0.088-0.056-0.196-0.143-0.321c-0.086-0.126-0.214-0.266-0.383-0.419
			c-0.168-0.152-0.319-0.223-0.452-0.21c-0.134,0.013-0.291,0.105-0.473,0.276C235.254,101.942,235.119,102.126,235.027,102.323z"/>
		<path fill="#FFFFFF" d="M253.588,104.458l0.297,0.008c0.188,0.005,0.41-0.081,0.667-0.257c0.259-0.176,0.423-0.372,0.499-0.587
			c0.074-0.216,0.116-0.507,0.127-0.872c0.01-0.366-0.017-0.671-0.08-0.916c-0.063-0.244-0.218-0.458-0.465-0.643
			c-0.248-0.186-0.488-0.281-0.72-0.287c-0.233-0.006-0.55,0.114-0.952,0.36c0.021,0.328,0.028,0.659,0.018,0.995l-0.189,7.208
			l-2.047-0.054l0.169-6.348c0.022-0.831-0.021-1.418-0.125-1.762c-0.104-0.345-0.334-0.749-0.688-1.214l1.813-1.213
			c0.252,0.185,0.473,0.482,0.659,0.893c0.828-0.562,1.412-0.838,1.759-0.829c0.346,0.01,0.819,0.299,1.417,0.869
			c0.6,0.57,1.001,1.045,1.209,1.427c0.104,0.142,0.146,0.623,0.125,1.443c-0.021,0.821-0.09,1.338-0.205,1.553
			c-0.229,0.37-0.654,0.824-1.282,1.361c-0.628,0.538-1.114,0.802-1.461,0.792l-0.594-0.015L253.588,104.458z"/>
		<path fill="#FFFFFF" d="M263.205,100.432c0.764-0.569,1.327-0.836,1.689-0.8c0.364,0.037,0.865,0.41,1.5,1.12
			c0.633,0.709,1.015,1.28,1.141,1.71c0.078,0.296,0.068,0.946-0.031,1.95l-0.605,6.038l-2.039-0.204l0.223-2.215l-2.037-0.204
			l-0.222,2.214l-2.037-0.204l0.604-6.039c0.101-1.004,0.219-1.643,0.356-1.918C261.956,101.485,262.441,101.002,263.205,100.432z
			 M263.428,104.004l-0.207,2.052l2.038,0.204l0.207-2.052c0.081-0.807,0.091-1.305,0.031-1.496
			c-0.062-0.19-0.177-0.395-0.349-0.616c-0.172-0.221-0.328-0.339-0.465-0.353c-0.138-0.014-0.313,0.071-0.524,0.253
			c-0.212,0.183-0.367,0.361-0.464,0.535C263.598,102.706,263.509,103.197,263.428,104.004z"/>
		<path fill="#FFFFFF" d="M274.705,101.759c0.874-0.399,1.452-0.574,1.734-0.524c0.281,0.049,0.672,0.381,1.172,0.997
			c0.5,0.615,0.806,1.04,0.914,1.275c0.11,0.235,0.136,0.523,0.076,0.864c-0.117,0.663-0.24,1.048-0.369,1.156
			c-0.26,0.276-0.642,0.585-1.143,0.929c0.495,0.669,0.789,1.168,0.883,1.496c0.043,0.218,0.016,0.854-0.08,1.907
			c-0.094,1.053-0.185,1.823-0.27,2.31l-2.191-0.384c0.078-0.438,0.159-1.132,0.244-2.081c0.088-0.949,0.102-1.529,0.043-1.741
			c-0.059-0.21-0.139-0.4-0.238-0.569l-1.301-0.229l-0.75,4.268l-2.018-0.354l1.125-6.401c0.137-0.789,0.178-1.347,0.12-1.673
			c-0.058-0.327-0.228-0.746-0.511-1.257l1.969-0.92C274.393,101.086,274.588,101.398,274.705,101.759z M274.675,104.33
			l-0.196,1.125l0.569,0.1c0.136,0.024,0.33-0.052,0.583-0.229c0.251-0.177,0.422-0.335,0.512-0.475s0.148-0.292,0.178-0.458
			s0.023-0.319-0.016-0.462c-0.041-0.143-0.104-0.307-0.193-0.493c-0.086-0.186-0.17-0.286-0.247-0.3
			c-0.265-0.046-0.605-0.041-1.028,0.015C274.799,103.539,274.745,103.931,274.675,104.33z"/>
		<path fill="#FFFFFF" d="M285.409,104.092c0.838-0.451,1.437-0.631,1.791-0.541c0.354,0.09,0.793,0.533,1.317,1.328
			c0.521,0.796,0.813,1.415,0.875,1.859c0.033,0.305-0.072,0.947-0.318,1.925l-1.491,5.883l-1.985-0.503l0.547-2.158l-1.984-0.502
			l-0.547,2.157l-1.985-0.503l1.49-5.882c0.247-0.979,0.459-1.592,0.635-1.844C284.02,104.949,284.57,104.543,285.409,104.092z
			 M285.104,107.657l-0.506,2l1.984,0.502l0.507-2c0.199-0.786,0.282-1.277,0.25-1.475c-0.032-0.196-0.116-0.417-0.253-0.661
			c-0.139-0.244-0.273-0.383-0.407-0.417c-0.135-0.035-0.319,0.023-0.556,0.173c-0.238,0.149-0.417,0.302-0.538,0.46
			C285.463,106.398,285.303,106.872,285.104,107.657z"/>
		<path fill="#FFFFFF" d="M306.591,110.044l-0.635,1.663l-1.802-0.687l-3.065,8.041l-1.914-0.729l3.065-8.042l-1.803-0.687
			l0.635-1.663L306.591,110.044z"/>
		<path fill="#FFFFFF" d="M310.537,122.265c-0.913,0.292-1.532,0.364-1.855,0.216c-0.323-0.149-0.672-0.666-1.043-1.55
			c-0.372-0.884-0.549-1.545-0.53-1.984c0.008-0.28,0.229-0.891,0.663-1.834l0.731-1.591c0.435-0.943,0.754-1.509,0.961-1.698
			c0.322-0.298,0.94-0.593,1.854-0.887c0.913-0.292,1.531-0.365,1.855-0.216c0.323,0.148,0.671,0.666,1.042,1.549
			c0.372,0.885,0.549,1.546,0.532,1.985c-0.008,0.279-0.231,0.891-0.664,1.833l-0.733,1.591c-0.433,0.943-0.754,1.509-0.96,1.697
			C312.068,121.676,311.45,121.972,310.537,122.265z M309.244,120.069c0.091,0.265,0.199,0.426,0.325,0.484
			c0.125,0.058,0.317,0.035,0.578-0.068c0.261-0.104,0.464-0.222,0.612-0.355c0.148-0.133,0.394-0.567,0.731-1.305l0.731-1.59
			c0.338-0.737,0.511-1.205,0.516-1.404c0.004-0.199-0.038-0.432-0.129-0.696c-0.091-0.265-0.198-0.427-0.324-0.484
			c-0.126-0.058-0.319-0.035-0.579,0.069c-0.259,0.104-0.464,0.222-0.612,0.355c-0.148,0.133-0.393,0.568-0.731,1.305l-0.731,1.59
			c-0.339,0.737-0.511,1.205-0.515,1.404C309.111,119.573,309.153,119.805,309.244,120.069z"/>
		<path fill="#FFFFFF" d="M321.44,117.709c0.819-0.135,1.377-0.121,1.671,0.042c0.295,0.163,0.595,0.698,0.9,1.607
			c0.308,0.909,0.436,1.582,0.387,2.019c-0.029,0.278-0.295,0.871-0.797,1.78l-0.847,1.533c-0.501,0.909-0.862,1.45-1.082,1.623
			c-0.343,0.251-0.957,0.475-1.844,0.669c-0.886,0.194-1.503,0.195-1.852,0.004l-2.688-1.484l3.069-5.56
			c0.387-0.701,0.609-1.223,0.668-1.563c0.058-0.341,0.035-0.794-0.071-1.361l2.375-0.249
			C321.438,117.007,321.473,117.321,321.44,117.709z M322.06,119.594c-0.251-0.139-0.606-0.228-1.07-0.27
			c-0.074,0.196-0.214,0.48-0.42,0.854l-2.617,4.741l0.896,0.494c0.122,0.067,0.315,0.059,0.582-0.026
			c0.269-0.084,0.479-0.187,0.639-0.309c0.155-0.122,0.432-0.538,0.822-1.249l0.918-1.663c0.392-0.71,0.599-1.164,0.616-1.363
			c0.021-0.199-0.006-0.433-0.077-0.704C322.277,119.83,322.182,119.662,322.06,119.594z"/>
		<path fill="#FFFFFF" d="M328.342,132.355c-0.948,0.157-1.568,0.138-1.869-0.056c-0.298-0.194-0.566-0.755-0.806-1.685
			c-0.239-0.93-0.319-1.609-0.238-2.041c0.05-0.274,0.357-0.848,0.925-1.718l0.954-1.467c0.567-0.87,0.967-1.384,1.198-1.54
			c0.362-0.248,1.017-0.45,1.962-0.607c0.945-0.157,1.568-0.138,1.866,0.056c0.3,0.195,0.567,0.756,0.807,1.685
			c0.24,0.929,0.318,1.609,0.239,2.041c-0.05,0.275-0.357,0.847-0.925,1.718l-0.955,1.467c-0.567,0.871-0.966,1.383-1.198,1.54
			C329.941,131.995,329.287,132.198,328.342,132.355z M327.381,129.995c0.051,0.275,0.135,0.451,0.25,0.526
			c0.116,0.075,0.312,0.081,0.582,0.016c0.273-0.064,0.492-0.152,0.658-0.262c0.167-0.11,0.472-0.505,0.915-1.185l0.955-1.468
			c0.442-0.679,0.681-1.118,0.713-1.314c0.034-0.197,0.026-0.432-0.025-0.708c-0.051-0.275-0.134-0.45-0.25-0.526
			c-0.116-0.076-0.311-0.081-0.583-0.016c-0.271,0.065-0.49,0.152-0.655,0.262c-0.167,0.11-0.472,0.505-0.914,1.185l-0.955,1.467
			c-0.443,0.68-0.682,1.118-0.715,1.314C327.322,129.484,327.33,129.719,327.381,129.995z"/>
		<path fill="#FFFFFF" d="M339.324,136.108c-0.021,0.208-0.19,0.524-0.508,0.946c-0.319,0.422-0.677,0.714-1.069,0.875
			c-0.332,0.11-0.906,0.174-1.728,0.194c-0.82,0.02-1.353-0.063-1.598-0.248c-0.434-0.328-0.761-0.93-0.979-1.807
			c-0.22-0.877-0.197-1.645,0.063-2.303l1.994,0.091c-0.153,0.467-0.207,0.958-0.164,1.474c0.045,0.517,0.123,0.818,0.239,0.905
			c0.114,0.086,0.264,0.142,0.451,0.165s0.346,0.022,0.478-0.003c0.197-0.049,0.396-0.208,0.601-0.477
			c0.201-0.269,0.264-0.482,0.186-0.641c-0.057-0.253-0.229-0.662-0.517-1.225c-0.288-0.563-0.527-1.12-0.722-1.669
			c-0.192-0.548-0.25-0.985-0.174-1.31c0.079-0.325,0.265-0.683,0.561-1.074c0.294-0.391,0.64-0.667,1.033-0.828
			c0.331-0.11,0.905-0.175,1.728-0.195c0.818-0.019,1.352,0.063,1.597,0.248c0.434,0.328,0.759,0.93,0.979,1.808
			c0.219,0.876,0.197,1.644-0.064,2.302l-2.002-0.079c0.153-0.467,0.208-0.96,0.169-1.48c-0.042-0.521-0.119-0.824-0.235-0.91
			c-0.113-0.086-0.266-0.146-0.452-0.175c-0.188-0.03-0.363-0.023-0.527,0.021c-0.163,0.045-0.342,0.195-0.536,0.451
			c-0.193,0.257-0.244,0.488-0.151,0.694c0.042,0.206,0.2,0.597,0.472,1.174C339.125,134.534,339.416,135.559,339.324,136.108z"/>
	</g>
	<g>
		<g>
			<path fill="#FFFFFF" d="M190.351,386.615l7.288,3.078l-2.083,4.928l-7.287-3.08l-3.167,7.491l9.73,4.112l-2.082,4.926
				l-15.35-6.486l10.601-25.08l7.271-1.533l9.079,3.838l-2.1,4.967l-7.572-3.2l-1.955,0.422L190.351,386.615z"/>
			<path fill="#FFFFFF" d="M212.405,383.563c2.257-1.015,3.873-1.399,4.845-1.156c0.972,0.242,2.245,1.557,3.822,3.941
				c1.574,2.383,2.458,4.223,2.651,5.517c0.127,0.821-0.183,2.731-0.935,5.733l-1.267,5.061c-0.751,3.002-1.377,4.835-1.877,5.499
				c-0.793,0.985-2.394,2.097-4.799,3.333c-2.405,1.236-4.179,1.711-5.323,1.424l-8.875-2.223l4.593-18.353
				c0.579-2.315,0.822-3.985,0.73-5.011c-0.093-1.025-0.508-2.314-1.243-3.865l6.648-2.527
				C211.862,381.542,212.204,382.418,212.405,383.563z M215.629,388.516c-0.83-0.207-1.926-0.192-3.291,0.041
				c-0.064,0.623-0.25,1.549-0.559,2.776l-3.917,15.651l2.959,0.74c0.399,0.101,0.952-0.072,1.657-0.52
				c0.703-0.447,1.235-0.905,1.597-1.378c0.361-0.472,0.836-1.879,1.422-4.224l1.373-5.488c0.587-2.344,0.832-3.809,0.737-4.395
				c-0.097-0.588-0.35-1.242-0.761-1.969C216.435,389.029,216.03,388.617,215.629,388.516z"/>
			<path fill="#FFFFFF" d="M248.653,387.273l-1.47,18.02c-0.251,3.084-0.569,4.994-0.955,5.73c-0.598,1.164-2.025,2.623-4.281,4.375
				c-2.257,1.752-3.914,2.586-4.971,2.498c-1.057-0.084-2.558-1.176-4.501-3.271c-1.943-2.094-3.115-3.765-3.516-5.01
				c-0.262-0.789-0.266-2.728-0.015-5.812l0.521-6.388c0.194-2.379,0.161-4.067-0.097-5.063c-0.259-0.996-0.878-2.199-1.857-3.609
				l5.589-3.271c0.889,0.694,1.599,1.957,2.129,3.788c0.531,1.833,0.696,3.981,0.496,6.449l-0.702,8.591
				c-0.196,2.408-0.199,3.895-0.009,4.456c0.191,0.563,0.549,1.169,1.073,1.815c0.522,0.65,0.989,0.99,1.401,1.023
				c0.411,0.034,0.927-0.227,1.55-0.781c0.621-0.556,1.072-1.096,1.351-1.621c0.279-0.522,0.517-1.989,0.713-4.397l1.469-18.019
				L248.653,387.273z"/>
			<path fill="#FFFFFF" d="M260.035,395.573l0.217,2.554l1.322-0.113c0.498-0.043,0.996-0.357,1.494-0.947
				c0.496-0.59,0.863-1.14,1.102-1.647c0.237-0.508,0.403-1.927,0.499-4.257c0.097-2.33,0.104-3.979,0.021-4.948l6.078-0.521
				c0.098,1.145,0.09,2.949-0.024,5.414c-0.115,2.465-0.279,3.988-0.496,4.566c-0.358,1.008-1.362,2.409-3.011,4.207
				c2.238,1.612,3.718,3.008,4.438,4.188c0.347,0.592,0.808,2.424,1.38,5.494c0.573,3.071,0.926,5.371,1.059,6.896l-6.078,0.521
				c-0.118-1.379-0.444-3.533-0.975-6.461c-0.533-2.927-0.951-4.613-1.256-5.061c-1.05-1.566-2.193-2.297-3.425-2.191l-1.673,0.145
				l1.206,14.093l-6.078,0.521l-1.651-19.289c-0.203-2.379-0.514-4.016-0.931-4.91c-0.417-0.896-1.228-1.973-2.429-3.231
				l4.968-4.151c0.992,0.537,1.897,1.605,2.714,3.207C259.324,391.25,259.833,393.225,260.035,395.573z"/>
			<path fill="#FFFFFF" d="M283.917,395.193l7.685-1.889l1.274,5.194l-7.683,1.888l1.939,7.898l10.26-2.521l1.274,5.194
				l-16.183,3.976l-6.496-26.441l4.91-5.576l9.574-2.352l1.285,5.236l-7.984,1.961l-1.313,1.508L283.917,395.193z"/>
			<path fill="#FFFFFF" d="M303.161,384.416l0.77,1.738l8.241,19.84l-5.633,2.339l-7.256-17.472
				c-0.95-2.285-1.773-3.825-2.471-4.621c-0.697-0.795-1.82-1.637-3.371-2.525l3.476-5.463c1.003,0.189,2.106,0.77,3.307,1.736
				c1.414-2.66,2.503-4.15,3.267-4.467c0.761-0.315,2.262-0.103,4.502,0.644c2.24,0.744,3.686,1.325,4.337,1.741
				c0.652,0.414,1.175,1.099,1.571,2.051l8.968,21.595l-5.674,2.356l-8.629-20.777c-0.104-0.245-0.331-0.509-0.688-0.792
				c-0.355-0.282-0.842-0.565-1.456-0.854c-0.614-0.287-1.104-0.354-1.472-0.201c-0.367,0.152-0.735,0.553-1.104,1.199
				C303.473,383.131,303.248,383.775,303.161,384.416z"/>
		</g>
	</g>
</g>
</svg>
